<?xml version="1.0" encoding="iso-8859-1"?>
<!-- Generator: Adobe Illustrator 19.1.0, SVG Export Plug-In . SVG Version: 6.00 Build 0)  -->
<svg version="1.1" id="Layer_1" xmlns="http://www.w3.org/2000/svg" xmlns:xlink="http://www.w3.org/1999/xlink" x="0px" y="0px"
	 viewBox="-410 288.28 20 20" style="enable-background:new -410 288.28 20 20;" xml:space="preserve">
<g id="LiteratureLanding">
	<g transform="translate(288 48)">
		<g id="icon-server_8_">
			<path style="fill:#875BA1;" d="M-688,243.34c0.861,0,1.694,0.052,2.499,0.155s1.544,0.254,2.216,0.453s1.211,0.464,1.618,0.794
				c0.406,0.33,0.608,0.704,0.608,1.121v8.834c0,0.417-0.202,0.791-0.608,1.121c-0.406,0.331-0.945,0.595-1.618,0.794
				c-0.672,0.199-1.41,0.349-2.216,0.453c-0.805,0.103-1.638,0.155-2.499,0.155s-1.694-0.052-2.499-0.155
				c-0.804-0.104-1.544-0.254-2.216-0.453s-1.211-0.463-1.617-0.794c-0.406-0.33-0.609-0.704-0.609-1.121v-8.834
				c0-0.417,0.203-0.791,0.609-1.121c0.406-0.33,0.945-0.595,1.617-0.794s1.411-0.349,2.216-0.453
				C-689.694,243.391-688.861,243.34-688,243.34z M-682.321,254.688v-2.875c-0.644,0.325-1.474,0.572-2.489,0.74
				c-1.015,0.167-2.079,0.251-3.19,0.25c-1.111,0-2.174-0.084-3.19-0.25c-1.015-0.167-1.845-0.414-2.489-0.74v2.884
				c0.02,0.073,0.108,0.16,0.263,0.262c0.156,0.102,0.396,0.212,0.717,0.33c0.323,0.118,0.699,0.227,1.125,0.326
				c0.427,0.098,0.955,0.18,1.583,0.246c0.628,0.065,1.291,0.099,1.991,0.099s1.363-0.033,1.992-0.099
				c0.628-0.066,1.155-0.148,1.582-0.249c0.427-0.1,0.801-0.21,1.124-0.328s0.561-0.228,0.717-0.33
				C-682.428,254.852-682.341,254.764-682.321,254.688z M-682.321,250.271v-2.875c-0.644,0.325-1.474,0.572-2.489,0.74
				c-1.015,0.167-2.079,0.251-3.19,0.25c-1.111,0-2.174-0.084-3.19-0.25c-1.015-0.167-1.845-0.414-2.489-0.74v2.884
				c0.02,0.073,0.108,0.16,0.263,0.262c0.156,0.102,0.396,0.212,0.717,0.33c0.323,0.118,0.699,0.227,1.125,0.326
				c0.427,0.098,0.955,0.18,1.583,0.246c0.628,0.065,1.291,0.099,1.991,0.099s1.363-0.033,1.992-0.099
				c0.628-0.066,1.154-0.148,1.58-0.246c0.425-0.099,0.8-0.208,1.122-0.326c0.322-0.118,0.562-0.229,0.719-0.333
				C-682.429,250.435-682.341,250.347-682.321,250.271L-682.321,250.271z M-688,244.601c-0.693,0-1.352,0.033-1.977,0.099
				c-0.624,0.066-1.148,0.147-1.572,0.244c-0.425,0.097-0.798,0.204-1.121,0.321c-0.324,0.116-0.567,0.226-0.727,0.33
				c-0.162,0.103-0.255,0.193-0.282,0.269c0.026,0.076,0.12,0.165,0.281,0.269c0.162,0.104,0.404,0.214,0.727,0.33
				s0.697,0.224,1.121,0.321c0.425,0.096,0.949,0.178,1.573,0.243c0.625,0.066,1.284,0.099,1.977,0.098
				c0.694,0,1.353-0.032,1.977-0.098c0.624-0.066,1.148-0.147,1.572-0.244c0.424-0.098,0.799-0.204,1.122-0.321
				c0.323-0.116,0.566-0.226,0.727-0.33c0.161-0.104,0.255-0.194,0.281-0.269c-0.026-0.076-0.12-0.165-0.281-0.269
				c-0.161-0.104-0.404-0.214-0.727-0.33c-0.324-0.117-0.698-0.224-1.122-0.321s-0.948-0.178-1.572-0.244
				C-686.647,244.634-687.306,244.601-688,244.601z"/>
		</g>
	</g>
</g>
<g id="Workflow-Details" style="display:none;">
</g>
<g id="ConferencesLanding" style="display:none;">
</g>
<g id="Data_x5F_View" style="display:none;">
</g>
<g id="DataView_x5F_New" style="display:none;">
</g>
<g id="Settings" style="display:none;">
</g>
<g id="Impact_Graph" style="display:none;">
</g>
<g id="Score-Details">
</g>
</svg>
