<?xml version="1.0" encoding="iso-8859-1"?>
<!-- Generator: Adobe Illustrator 19.1.0, SVG Export Plug-In . SVG Version: 6.00 Build 0)  -->
<svg version="1.1" xmlns="http://www.w3.org/2000/svg" xmlns:xlink="http://www.w3.org/1999/xlink" x="0px" y="0px"
	 viewBox="0 0 20 20" style="enable-background:new 0 0 20 20;" xml:space="preserve">
<g id="LiteratureLanding">
	<g>
		<path style="fill:#98A3A4;" d="M15.501,6.165C15.2,5.754,14.78,5.275,14.319,4.813c-0.461-0.461-0.941-0.881-1.352-1.182
			c-0.699-0.513-1.038-0.572-1.232-0.572H5.012c-0.598,0-1.084,0.486-1.084,1.084v11.712c0,0.598,0.487,1.084,1.084,1.084h9.977
			c0.598,0,1.084-0.487,1.084-1.084V7.397C16.073,7.203,16.013,6.864,15.501,6.165z M13.706,5.427
			c0.416,0.416,0.743,0.792,0.984,1.103h-2.087V4.443C12.914,4.684,13.29,5.011,13.706,5.427z M15.205,15.856
			c0,0.118-0.099,0.217-0.217,0.217H5.012c-0.118,0-0.217-0.099-0.217-0.217V4.144c0-0.118,0.099-0.217,0.217-0.217h6.723v3.036
			c0,0.239,0.194,0.434,0.434,0.434h3.036V15.856z"/>
		<path style="fill:#98A3A4;" d="M13.036,14.338H6.964c-0.239,0-0.434-0.194-0.434-0.434s0.194-0.434,0.434-0.434h6.073
			c0.239,0,0.434,0.194,0.434,0.434S13.276,14.338,13.036,14.338z"/>
		<path style="fill:#98A3A4;" d="M13.036,12.603H6.964c-0.239,0-0.434-0.194-0.434-0.434s0.194-0.434,0.434-0.434h6.073
			c0.239,0,0.434,0.194,0.434,0.434S13.276,12.603,13.036,12.603z"/>
		<path style="fill:#98A3A4;" d="M13.036,10.868H6.964c-0.239,0-0.434-0.194-0.434-0.434C6.53,10.194,6.724,10,6.964,10h6.073
			c0.239,0,0.434,0.194,0.434,0.434C13.47,10.673,13.276,10.868,13.036,10.868z"/>
	</g>
</g>
<g id="Workflow-Details" style="display:none;">
</g>
<g id="ConferencesLanding" style="display:none;">
</g>
<g id="Data_x5F_View" style="display:none;">
</g>
<g id="DataView_x5F_New" style="display:none;">
</g>
<g id="Settings" style="display:none;">
</g>
<g id="Impact_Graph" style="display:none;">
</g>
<g id="Score-Details">
</g>
</svg>
