<?xml version="1.0" encoding="iso-8859-1"?>
<!-- Generator: Adobe Illustrator 19.1.0, SVG Export Plug-In . SVG Version: 6.00 Build 0)  -->
<svg version="1.1" xmlns="http://www.w3.org/2000/svg" xmlns:xlink="http://www.w3.org/1999/xlink" x="0px" y="0px"
	 viewBox="0 0 20 20" style="enable-background:new 0 0 20 20;" xml:space="preserve">
<g id="LiteratureLanding">
	<path style="fill:#BDC3C7;" d="M15.083,12.796L14.77,9.488c0.353-0.115,0.684-0.315,0.96-0.601
		c0.899-0.931,0.873-2.414-0.058-3.313c-0.17-0.164-0.359-0.298-0.559-0.4l0.033,1.914c0.005,0.286-0.225,0.525-0.511,0.53
		l-1.167,0.021c-0.287,0.005-0.525-0.225-0.53-0.511l-0.033-1.914c-0.197,0.109-0.381,0.249-0.545,0.42
		c-0.899,0.931-0.873,2.414,0.058,3.313c0.286,0.276,0.624,0.465,0.981,0.567l-0.09,1.51l-1.22-1.22
		c-0.223-0.223-0.589-0.223-0.812,0l-0.271,0.271L8.804,7.871l3.614-3.614H8.589l-1.7,1.7L6.721,5.789H5.909v0.812l0.168,0.168
		L3.612,9.234l1.914,1.914l2.466-2.465l2.202,2.202l-0.271,0.271c-0.223,0.223-0.223,0.589,0,0.812l3.608,3.608
		c0.223,0.223,0.589,0.223,0.812,0l1.354-1.354c0.223-0.223,0.223-0.589,0-0.812L15.083,12.796z"/>
</g>
<g id="Workflow-Details" style="display:none;">
</g>
<g id="ConferencesLanding" style="display:none;">
</g>
<g id="Data_x5F_View" style="display:none;">
</g>
<g id="DataView_x5F_New" style="display:none;">
</g>
<g id="Settings" style="display:none;">
</g>
<g id="Impact_Graph" style="display:none;">
</g>
<g id="Score-Details">
</g>
</svg>
