<svg width="200" height="50" version="1.1" id="Layer_1" xmlns="http://www.w3.org/2000/svg" xmlns:xlink="http://www.w3.org/1999/xlink" x="0px" y="0px"
	 viewBox="0 0 189.79 31.25" style="enable-background:new 0 0 189.79 31.25;" xml:space="preserve">
<path id="inspire-dot" style="fill:#E57E25;" d="M36.331,4.652c0,1.161-0.844,2.005-1.949,2.005
	c-1.104,0-1.945-0.844-1.945-2.005c0-1.192,0.842-2.037,1.945-2.037C35.487,2.615,36.331,3.459,36.331,4.652z"/>
<g style="fill:white" id="inspire-text">
	<rect x="32.725" y="9.069"  width="3.315" height="15.467"/>
	<path d="M55.778,14.913v9.623h-3.346v-8.692c0-2.327-1.395-3.751-3.721-3.751
		c-2.557,0.029-4.156,1.802-4.389,4.215v8.228h-3.346V9.069h3.346v2.967c1.105-2.154,3.08-3.083,5.698-3.083
		C53.626,8.952,55.778,11.222,55.778,14.913z"/>
	<path d="M70.28,10.494l-1.223,2.471c-1.365-0.844-3.081-1.367-4.447-1.367c-1.309,0-2.268,0.437-2.268,1.542
		c0,2.847,8.227,1.308,8.197,6.92c0,3.167-2.82,4.593-5.93,4.593c-2.268,0-4.68-0.758-6.223-2.154l1.193-2.383
		c1.336,1.192,3.488,1.919,5.174,1.919c1.425,0,2.53-0.493,2.53-1.658c0-3.168-8.141-1.395-8.11-6.977
		c0-3.139,2.73-4.477,5.697-4.477C66.819,8.924,68.883,9.505,70.28,10.494z"/>
	<path d="M90.189,16.863c0,4.621-2.907,7.791-7.327,7.791c-2.47,0-4.33-0.989-5.465-2.791v8.314h-3.342V9.069
		h3.342v2.675c1.135-1.802,2.995-2.792,5.408-2.792C87.194,8.952,90.189,12.153,90.189,16.863z M86.817,16.746
		c0-2.88-1.949-5.002-4.711-5.002c-2.762,0-4.709,2.094-4.709,5.002c0,2.994,1.947,5.057,4.709,5.057
		C84.868,21.803,86.817,19.71,86.817,16.746z"/>
	<path  d="M97.276,4.652c0,1.161-0.844,2.005-1.947,2.005c-1.105,0-1.947-0.844-1.947-2.005
		c0-1.192,0.842-2.037,1.947-2.037C96.432,2.615,97.276,3.459,97.276,4.652z M93.671,24.536V9.069h3.314v15.467H93.671z"/>
	<path  d="M105.268,12.153c1.047-2.095,2.907-3.2,5.35-3.2v3.2c-3.111-0.176-5.088,1.656-5.35,4.301v8.083
		h-3.344V9.069h3.344V12.153z"/>
	<path  d="M126.983,18.082h-11.688c0.522,2.385,2.354,3.867,4.797,3.867c1.686,0,3.227-0.641,4.359-1.802
		l1.773,1.889c-1.51,1.656-3.721,2.618-6.396,2.618c-4.768,0-7.905-3.17-7.905-7.822c0-4.679,3.226-7.85,7.819-7.879
		C125.18,8.952,127.389,12.5,126.983,18.082z M124.075,15.64c-0.117-2.5-1.771-4.012-4.302-4.012c-2.444,0-4.159,1.541-4.538,4.012
		H124.075z"/>
</g>
<path id="flask-bottom" style="fill:#E57E25;" d="M18.958,18.408c0,3.863-3.133,6.994-6.996,6.994
	c-3.863,0-6.996-3.131-6.996-6.994C4.966,14.544,18.958,14.544,18.958,18.408z"/>
<ellipse id="flask-top" style="fill:#D25627;" cx="11.788" cy="17.951" rx="6.812" ry="2.423"/>
<path style="fill:#FFFFFF;" d="M16.218,9.206V3.731h0.005V1.074h-1.931v2.657h0.007v6.111c0,0.398,0.242,0.754,0.612,0.898
	c3.389,1.309,5.579,4.5,5.579,8.125c0,4.808-3.914,8.721-8.723,8.721c-4.808,0-8.721-3.913-8.721-8.721
	c0-3.616,2.282-6.897,5.679-8.166c0.377-0.139,0.625-0.497,0.625-0.898v-8.68h-1.92v8.036c-3.798,1.701-6.306,5.519-6.306,9.708
	c0,5.868,4.775,10.644,10.643,10.644c5.869,0,10.643-4.776,10.643-10.644C22.411,14.663,20.001,10.939,16.218,9.206z"/>
<path style="fill:#FFFFFF;" d="M8.57,1.074H7.893H6.673c-0.402,0-0.729,0.327-0.729,0.729c0,0.402,0.326,0.729,0.729,0.729h1.221
	H8.57h0.78V1.074H8.57z"/>
<path style="fill:#FFFFFF;" d="M15.077,1.074h0.678h1.218c0.401,0,0.729,0.327,0.729,0.729c0,0.402-0.327,0.729-0.729,0.729h-1.218
	h-0.678h-0.781V1.074H15.077z"/>
<g id="labs-text" style="fill:#E57E25;">
	<path  d="M133.514,24.842V2.727h2.326v22.115H133.514z"/>
	<path  d="M151.393,22.428c-1.25,1.7-3.248,2.535-5.751,2.535c-3.248,0-5.336-2.085-5.336-4.8
		c0-2.74,2.179-4.47,5.872-4.5h5.158V14.74c0-2.297-1.43-3.668-4.201-3.668c-1.73,0-3.342,0.656-4.98,1.791l-0.984-1.7
		c2.027-1.342,3.727-2.116,6.408-2.116c3.877,0,6.022,2.058,6.051,5.425l0.029,10.372h-2.266V22.428z M151.365,19.42v-1.88h-4.888
		c-2.621,0-3.992,0.805-3.992,2.534s1.399,2.862,3.607,2.862C148.743,22.936,150.77,21.595,151.365,19.42z"/>
	<path  d="M174.905,17.034c0,4.65-3.043,7.899-7.482,7.899c-2.801,0-4.949-1.281-6.112-3.459v3.368h-2.323
		V2.727h2.323v9.806c1.163-2.207,3.312-3.488,6.052-3.488C171.805,9.045,174.905,12.325,174.905,17.034z M172.549,16.975
		c0-3.371-2.324-5.843-5.604-5.843c-3.307,0-5.636,2.444-5.636,5.843c0,3.426,2.329,5.841,5.636,5.841
		C170.225,22.816,172.549,20.373,172.549,16.975z"/>
	<path  d="M188.157,10.475l-0.896,1.85c-1.221-0.778-2.801-1.283-4.259-1.283
		c-1.759,0-3.101,0.626-3.101,2.087c0,3.488,8.764,1.699,8.764,7.334c0,3.098-2.744,4.47-5.754,4.47
		c-2.234,0-4.531-0.776-6.021-2.207l0.896-1.757c1.341,1.251,3.366,1.997,5.217,1.997c1.847,0,3.337-0.686,3.366-2.236
		c0.091-3.786-8.703-1.848-8.674-7.423c0-3.011,2.593-4.262,5.455-4.262C185.028,9.045,186.846,9.582,188.157,10.475z"/>
</g>
</svg>
