<?xml version="1.0" encoding="iso-8859-1"?>
<!-- Generator: Adobe Illustrator 19.1.0, SVG Export Plug-In . SVG Version: 6.00 Build 0)  -->
<svg version="1.1" xmlns="http://www.w3.org/2000/svg" xmlns:xlink="http://www.w3.org/1999/xlink" x="0px" y="0px"
	 viewBox="0 0 32.525 33.333" style="enable-background:new 0 0 32.525 33.333;" xml:space="preserve">
<g id="LiteratureLanding">
	<g>
		<path style="fill:#E57E25;" d="M23.768,19.921c0,4.033-3.269,7.302-7.303,7.302c-4.033,0-7.304-3.269-7.304-7.302
			C9.16,15.887,23.768,15.887,23.768,19.921z"/>
		<ellipse style="fill:#D25627;" cx="16.284" cy="19.444" rx="7.112" ry="2.53"/>
		<path style="fill:#2C3E50;" d="M20.909,10.314V4.598h0.004V3.344h0.783c0.42,0,0.761-0.341,0.761-0.761s-0.342-0.761-0.761-0.761
			h-0.783h-0.489h-0.708h-0.815h-0.002v2.775h0.006v6.38c0,0.415,0.253,0.787,0.64,0.937c3.538,1.366,5.825,4.698,5.825,8.483
			c0,5.02-4.086,9.105-9.106,9.105c-5.02,0-9.106-4.085-9.106-9.105c0-3.775,2.383-7.201,5.93-8.526
			c0.393-0.145,0.652-0.519,0.652-0.937V1.873h-0.001v-0.05h-0.814h-0.708h-1.272c-0.42,0-0.761,0.341-0.761,0.761
			s0.341,0.761,0.761,0.761h0.791v6.918c-3.965,1.776-6.583,5.761-6.583,10.135c0,6.126,4.986,11.113,11.112,11.113
			c6.127,0,11.11-4.986,11.11-11.113C27.373,16.011,24.857,12.123,20.909,10.314z"/>
	</g>
</g>
<g id="Workflow-Details" style="display:none;">
</g>
<g id="ConferencesLanding" style="display:none;">
</g>
<g id="Data_x5F_View" style="display:none;">
</g>
<g id="DataView_x5F_New" style="display:none;">
</g>
<g id="Settings" style="display:none;">
</g>
<g id="Impact_Graph" style="display:none;">
</g>
<g id="Score-Details">
</g>
</svg>
