<?xml version="1.0" encoding="iso-8859-1"?>
<!-- Generator: Adobe Illustrator 19.1.0, SVG Export Plug-In . SVG Version: 6.00 Build 0)  -->
<svg version="1.1" id="Layer_1" xmlns="http://www.w3.org/2000/svg" xmlns:xlink="http://www.w3.org/1999/xlink" x="0px" y="0px"
	 viewBox="-410 288.28 20 20" style="enable-background:new -410 288.28 20 20;" xml:space="preserve">
<g id="LiteratureLanding">
	<g transform="translate(480 192)">
		<g id="icon-head_1_">
			<path style="fill:#6196D0;" d="M-880,100.548c0.543,0,1.043,0.134,1.501,0.402c0.459,0.267,0.822,0.63,1.089,1.088
				c0.267,0.459,0.401,0.959,0.401,1.501v1.496c0,0.416-0.08,0.809-0.242,1.18c-0.161,0.372-0.386,0.694-0.673,0.97
				c0.758,0.12,1.432,0.296,2.021,0.528c0.589,0.232,1.051,0.507,1.385,0.824s0.501,0.65,0.501,1v0.981
				c0,0.413-0.146,0.765-0.438,1.057s-0.645,0.438-1.057,0.438h-8.975c-0.413,0-0.765-0.146-1.057-0.438s-0.438-0.644-0.438-1.057
				v-0.985c0-0.351,0.167-0.684,0.501-1c0.334-0.317,0.795-0.592,1.382-0.824c0.588-0.232,1.261-0.407,2.019-0.524
				c-0.286-0.277-0.509-0.602-0.67-0.971c-0.161-0.37-0.242-0.763-0.242-1.179v-1.496c0-0.543,0.134-1.043,0.401-1.501
				c0.268-0.459,0.63-0.821,1.089-1.088C-881.044,100.682-880.544,100.549-880,100.548z M-880,108.025
				c-0.722,0-1.418,0.058-2.09,0.174c-0.671,0.115-1.256,0.277-1.754,0.485c-0.2,0.083-0.379,0.172-0.536,0.265
				c-0.157,0.093-0.276,0.177-0.358,0.253c-0.082,0.075-0.144,0.141-0.185,0.196c-0.042,0.056-0.062,0.101-0.062,0.134v0.985
				c0,0.138,0.049,0.256,0.146,0.353c0.098,0.098,0.215,0.146,0.353,0.146h8.973c0.137,0,0.255-0.048,0.353-0.146
				c0.097-0.097,0.146-0.215,0.146-0.353v-0.981c0-0.034-0.021-0.078-0.063-0.134s-0.103-0.122-0.185-0.197
				c-0.082-0.075-0.201-0.159-0.358-0.253c-0.157-0.093-0.336-0.183-0.536-0.269c-0.498-0.208-1.083-0.37-1.754-0.486
				C-878.583,108.083-879.279,108.025-880,108.025L-880,108.025z M-880,101.546c-0.551,0-1.02,0.195-1.41,0.584
				c-0.389,0.39-0.584,0.859-0.584,1.41v1.496c0,0.551,0.195,1.02,0.584,1.41c0.39,0.389,0.859,0.584,1.41,0.584
				c0.551,0,1.02-0.195,1.41-0.584c0.389-0.39,0.584-0.859,0.584-1.41v-1.496c0-0.551-0.195-1.02-0.584-1.41
				C-878.981,101.741-879.45,101.546-880,101.546z"/>
		</g>
	</g>
</g>
<g id="Workflow-Details" style="display:none;">
</g>
<g id="ConferencesLanding" style="display:none;">
</g>
<g id="Data_x5F_View" style="display:none;">
</g>
<g id="DataView_x5F_New" style="display:none;">
</g>
<g id="Settings" style="display:none;">
</g>
<g id="Impact_Graph" style="display:none;">
</g>
<g id="Score-Details">
</g>
</svg>
