<?xml version="1.0" encoding="iso-8859-1"?>
<!-- Generator: Adobe Illustrator 19.1.0, SVG Export Plug-In . SVG Version: 6.00 Build 0)  -->
<svg version="1.1" xmlns="http://www.w3.org/2000/svg" xmlns:xlink="http://www.w3.org/1999/xlink" x="0px" y="0px"
	 viewBox="0 0 20 20" style="enable-background:new 0 0 20 20;" xml:space="preserve">
<g id="LiteratureLanding">
	<path style="fill:#6CB79A;" d="M16.174,6.031h-3.528V5.149c0-0.485-0.397-0.882-0.882-0.882H8.236
		c-0.485,0-0.882,0.397-0.882,0.882v0.882H3.826c-0.485,0-0.882,0.397-0.882,0.882v7.938c0,0.485,0.397,0.882,0.882,0.882h12.348
		c0.485,0,0.882-0.397,0.882-0.882V6.913C17.056,6.428,16.659,6.031,16.174,6.031z M8.236,5.151l0.002-0.002h3.525
		c0,0,0.001,0.001,0.002,0.002v0.88H8.236L8.236,5.151L8.236,5.151z M16.174,9.559H14.41v1.323c0,0.243-0.198,0.441-0.441,0.441
		h-0.882c-0.243,0-0.441-0.198-0.441-0.441V9.559H7.354v1.323c0,0.243-0.198,0.441-0.441,0.441H6.031
		c-0.243,0-0.441-0.198-0.441-0.441V9.559H3.826V8.677h12.348V9.559z"/>
</g>
<g id="Workflow-Details" style="display:none;">
</g>
<g id="ConferencesLanding" style="display:none;">
</g>
<g id="Data_x5F_View" style="display:none;">
</g>
<g id="DataView_x5F_New" style="display:none;">
</g>
<g id="Settings" style="display:none;">
</g>
<g id="Impact_Graph" style="display:none;">
</g>
<g id="Score-Details">
</g>
</svg>
