<?xml version="1.0" encoding="iso-8859-1"?>
<!-- Generator: Adobe Illustrator 19.1.0, SVG Export Plug-In . SVG Version: 6.00 Build 0)  -->
<svg version="1.1" xmlns="http://www.w3.org/2000/svg" xmlns:xlink="http://www.w3.org/1999/xlink" x="0px" y="0px"
	 viewBox="0 0 20 20" style="enable-background:new 0 0 20 20;" xml:space="preserve">
<g id="LiteratureLanding">
	<path style="fill:#E4C235;" d="M7.831,8.265h1.735V10H7.831V8.265z M10.434,8.265h1.735V10h-1.735V8.265z M13.036,8.265h1.735V10
		h-1.735V8.265z M5.228,13.47h1.735v1.735H5.228V13.47z M7.831,13.47h1.735v1.735H7.831V13.47z M10.434,13.47h1.735v1.735h-1.735
		V13.47z M7.831,10.868h1.735v1.735H7.831V10.868z M10.434,10.868h1.735v1.735h-1.735V10.868z M13.036,10.868h1.735v1.735h-1.735
		V10.868z M5.228,10.868h1.735v1.735H5.228V10.868z M14.772,3.059v0.868h-1.735V3.059H6.964v0.868H5.228V3.059H3.493v13.881h13.013
		V3.059H14.772z M15.639,16.073H4.361V6.53h11.278V16.073z"/>
</g>
<g id="Workflow-Details" style="display:none;">
</g>
<g id="ConferencesLanding" style="display:none;">
</g>
<g id="Data_x5F_View" style="display:none;">
</g>
<g id="DataView_x5F_New" style="display:none;">
</g>
<g id="Settings" style="display:none;">
</g>
<g id="Impact_Graph" style="display:none;">
</g>
<g id="Score-Details">
</g>
</svg>
