<?xml version="1.0" encoding="iso-8859-1"?>
<!-- Generator: Adobe Illustrator 19.1.0, SVG Export Plug-In . SVG Version: 6.00 Build 0)  -->
<svg version="1.1" xmlns="http://www.w3.org/2000/svg" xmlns:xlink="http://www.w3.org/1999/xlink" x="0px" y="0px"
	 viewBox="0 0 20 20" style="enable-background:new 0 0 20 20;" xml:space="preserve">
<g id="LiteratureLanding">
</g>
<g id="Workflow-Details" style="display:none;">
</g>
<g id="ConferencesLanding" style="display:none;">
</g>
<g id="Data_x5F_View" style="display:none;">
</g>
<g id="DataView_x5F_New" style="display:none;">
</g>
<g id="Settings" style="display:none;">
</g>
<g id="Impact_Graph" style="display:none;">
</g>
<g id="Score-Details">
	<g>
		<g>
			<path style="fill:#E67E24;" d="M15.612,16.805H4.388c-0.197,0-0.358-0.131-0.358-0.292V3.487c0-0.161,0.16-0.292,0.358-0.292
				h11.224c0.197,0,0.358,0.131,0.358,0.292v13.026C15.97,16.674,15.809,16.805,15.612,16.805z M4.746,16.221h10.507V3.779H4.746
				V16.221z"/>
		</g>
		<rect x="5.822" y="5.225" style="fill:#E67E24;" width="8.357" height="1.911"/>
		<g>
			<g>
				<rect x="10.482" y="8.449" style="fill:#E67E24;" width="3.344" height="0.716"/>
			</g>
			<g>
				<rect x="10.482" y="10.24" style="fill:#E67E24;" width="3.344" height="0.716"/>
			</g>
		</g>
		<g>
			<g>
				<rect x="5.822" y="8.449" style="fill:#E67E24;" width="3.342" height="0.716"/>
			</g>
			<g>
				<rect x="5.822" y="10.24" style="fill:#E67E24;" width="3.342" height="0.716"/>
			</g>
			<g>
				<rect x="5.822" y="12.031" style="fill:#E67E24;" width="3.342" height="0.716"/>
			</g>
			<g>
				<rect x="5.822" y="13.822" style="fill:#E67E24;" width="3.342" height="0.717"/>
			</g>
		</g>
		<rect x="10.476" y="12.37" style="fill:#E67E24;" width="3.343" height="2.507"/>
	</g>
</g>
</svg>
