<?xml version="1.0" encoding="iso-8859-1"?>
<svg version="1.1" xmlns="http://www.w3.org/2000/svg" xmlns:xlink="http://www.w3.org/1999/xlink" x="0px" y="0px"
   viewBox="0 0 106 104.286" style="enable-background:new 0 0 106 104.286;" xml:space="preserve">
<g id="Layer_1">
  <polygon style="fill:#ECF0F1;" points="21.784,36.9 15.856,28.472 28.031,16.06 37.243,16.495 40.75,11.53 64.093,13.795 
    68.373,18.736 75.029,7 92.28,28.448 84.71,39.842 94.521,36.916 94.521,57.336 87.548,63.562 96.514,72.03 78.583,88.964 
    69.12,83.734 43.22,74.52 29.025,88.964 8.355,71.781 24.542,60.076 8.355,56.34 9.849,37.663  "/>
  <ellipse style="fill:#FCCDB1;" cx="52.434" cy="62.753" rx="33.125" ry="34.28"/>
  <ellipse style="fill:#FCCDB1;" cx="20.103" cy="59.378" rx="4.247" ry="7.361"/>
  <circle style="fill:#2C3E50;" cx="36.467" cy="58.811" r="4.283"/>
  <ellipse style="fill:#FCCDB1;" cx="84.71" cy="59.378" rx="4.247" ry="7.361"/>
  <g>
    <path style="fill:#FFFFFF;" d="M40.75,56.499h-8.565c-1.381,0-2.5-1.119-2.5-2.5s1.119-2.5,2.5-2.5h8.565
      c1.381,0,2.5,1.119,2.5,2.5S42.131,56.499,40.75,56.499z"/>
  </g>
  <circle style="fill:#2C3E50;" cx="68.375" cy="59.077" r="4.283"/>
  <g>
    <path style="fill:#FFFFFF;" d="M72.658,56.764h-8.565c-1.381,0-2.5-1.119-2.5-2.5s1.119-2.5,2.5-2.5h8.565
      c1.381,0,2.5,1.119,2.5,2.5S74.039,56.764,72.658,56.764z"/>
  </g>
  <path style="fill:#FFFFFF;" d="M53.134,73.179c0,0-7.481-0.399-9.459,1.051c-1.407,1.032-2.452,5.605-2.452,5.605
    s8.006,0.312,10.154-0.606c0.966-0.413,1.418-1.727,1.757-2.722C53.402,75.72,53.134,73.179,53.134,73.179z"/>
  <path style="fill:#FFFFFF;" d="M51.735,73.179c0,0,7.481-0.399,9.459,1.051c1.407,1.032,2.452,5.605,2.452,5.605
    s-8.006,0.312-10.154-0.606c-0.966-0.413-1.418-1.727-1.757-2.722C51.466,75.72,51.735,73.179,51.735,73.179z"/>
</g>
<g id="Upload-1">
</g>
<g id="Upload-2" style="display:none;">
</g>
</svg>