<?xml version="1.0" encoding="utf-8"?>
<!-- Generator: Adobe Illustrator 15.0.2, SVG Export Plug-In  -->
<!DOCTYPE svg PUBLIC "-//W3C//DTD SVG 1.1//EN" "http://www.w3.org/Graphics/SVG/1.1/DTD/svg11.dtd" [
	<!ENTITY ns_flows "http://ns.adobe.com/Flows/1.0/">
]>
<svg version="1.1"
	 xmlns="http://www.w3.org/2000/svg" xmlns:xlink="http://www.w3.org/1999/xlink" xmlns:a="http://ns.adobe.com/AdobeSVGViewerExtensions/3.0/"
	 x="0px" y="0px" width="168px" height="29px" viewBox="-2.948 -2.041 168 29"
	 overflow="visible" enable-background="new -2.948 -2.041 168 29" xml:space="preserve">
<defs>
</defs>
<path fill="#E57E25" d="M30.103,3.06c0,0.993-0.721,1.715-1.666,1.715c-0.944,0-1.665-0.722-1.665-1.715
	c0-1.02,0.721-1.741,1.665-1.741C29.382,1.319,30.103,2.041,30.103,3.06z"/>
<rect x="27.02" y="6.837" fill="#FFFFFF" width="2.834" height="13.226"/>
<path fill="#FFFFFF" d="M46.731,11.834v8.229h-2.859V12.63c0-1.989-1.193-3.207-3.182-3.207c-2.188,0.024-3.555,1.541-3.753,3.604
	v7.035h-2.859V6.837h2.859v2.537c0.944-1.842,2.635-2.637,4.873-2.637C44.892,6.738,46.731,8.678,46.731,11.834z"/>
<path fill="#FFFFFF" d="M59.131,8.056l-1.044,2.113C56.918,9.448,55.452,9,54.284,9c-1.119,0-1.94,0.374-1.94,1.318
	c0,2.435,7.036,1.118,7.011,5.917c0,2.708-2.412,3.928-5.071,3.928c-1.94,0-4.002-0.648-5.321-1.842l1.02-2.038
	c1.144,1.02,2.983,1.642,4.425,1.642c1.218,0,2.163-0.422,2.163-1.418c0-2.709-6.961-1.193-6.936-5.966
	c0-2.685,2.336-3.828,4.873-3.828C56.173,6.713,57.938,7.21,59.131,8.056z"/>
<path fill="#FFFFFF" d="M76.156,13.501c0,3.951-2.486,6.662-6.264,6.662c-2.113,0-3.704-0.846-4.674-2.387v7.109H62.36V6.837h2.858
	v2.287c0.97-1.541,2.561-2.387,4.624-2.387C73.596,6.738,76.156,9.474,76.156,13.501z M73.273,13.402
	c0-2.463-1.666-4.277-4.027-4.277c-2.362,0-4.027,1.791-4.027,4.277c0,2.56,1.666,4.324,4.027,4.324
	C71.607,17.726,73.273,15.936,73.273,13.402z"/>
<path fill="#FFFFFF" d="M82.217,3.06c0,0.993-0.721,1.715-1.666,1.715c-0.944,0-1.665-0.722-1.665-1.715
	c0-1.02,0.721-1.741,1.665-1.741C81.496,1.319,82.217,2.041,82.217,3.06z M79.134,20.063V6.837h2.834v13.226H79.134z"/>
<path fill="#FFFFFF" d="M89.051,9.474c0.895-1.791,2.485-2.736,4.574-2.736v2.736c-2.66-0.15-4.35,1.416-4.574,3.678v6.911h-2.859
	V6.837h2.859V9.474z"/>
<path fill="#FFFFFF" d="M107.618,14.544h-9.994c0.448,2.039,2.015,3.307,4.102,3.307c1.443,0,2.76-0.548,3.729-1.541l1.516,1.615
	c-1.292,1.416-3.182,2.238-5.469,2.238c-4.077,0-6.76-2.711-6.76-6.688c0-4.001,2.758-6.712,6.686-6.737
	C106.076,6.738,107.965,9.771,107.618,14.544z M105.131,12.457c-0.1-2.138-1.516-3.431-3.678-3.431c-2.09,0-3.556,1.317-3.879,3.431
	H105.131z"/>
<path fill="#E57E25" d="M15.247,14.822c0,3.303-2.678,5.981-5.981,5.981c-3.303,0-5.982-2.678-5.982-5.981
	S15.247,11.519,15.247,14.822z"/>
<ellipse fill="#D25627" cx="9.118" cy="14.432" rx="5.825" ry="2.072"/>
<path fill="#FFFFFF" d="M12.905,6.955V2.273h0.003V0h-1.649v2.273h0.005v5.225c0,0.34,0.208,0.645,0.524,0.768
	c2.897,1.12,4.771,3.848,4.771,6.948c0,4.11-3.346,7.456-7.458,7.456c-4.111,0-7.458-3.346-7.458-7.456
	c0-3.092,1.952-5.898,4.857-6.983c0.322-0.119,0.534-0.425,0.534-0.767V0.041H5.392v6.872C2.145,8.367,0,11.632,0,15.214
	c0,5.018,4.083,9.101,9.101,9.101c5.018,0,9.099-4.083,9.099-9.101C18.2,11.621,16.139,8.437,12.905,6.955z"/>
<path fill="#FFFFFF" d="M6.365,0h-0.58H4.744C4.4,0,4.121,0.28,4.121,0.624c0,0.343,0.279,0.623,0.623,0.623h1.042h0.58h0.667V0
	H6.365z"/>
<path fill="#FFFFFF" d="M11.928,0h0.58h1.042c0.344,0,0.624,0.28,0.624,0.624c0,0.343-0.28,0.623-0.624,0.623h-1.042h-0.58h-0.667V0
	H11.928z"/>
<path fill="#E57E25" d="M113.203,20.325V1.414h1.989v18.911H113.203z"/>
<path fill="#E57E25" d="M128.492,18.26c-1.07,1.454-2.777,2.168-4.918,2.168c-2.778,0-4.563-1.784-4.563-4.105
	c0-2.343,1.863-3.822,5.022-3.848h4.41v-0.79c0-1.964-1.223-3.136-3.592-3.136c-1.479,0-2.856,0.56-4.258,1.53l-0.842-1.454
	c1.734-1.148,3.188-1.809,5.48-1.809c3.314,0,5.149,1.76,5.174,4.638l0.025,8.87h-1.937V18.26z M128.467,15.688v-1.607h-4.179
	c-2.242,0-3.415,0.688-3.415,2.167s1.197,2.447,3.084,2.447C126.225,18.695,127.958,17.548,128.467,15.688z"/>
<path fill="#E57E25" d="M148.596,13.648c0,3.977-2.602,6.754-6.398,6.754c-2.396,0-4.231-1.095-5.227-2.958v2.88h-1.986V1.414h1.986
	v8.385c0.996-1.887,2.831-2.982,5.174-2.982C145.945,6.817,148.596,9.622,148.596,13.648z M146.581,13.598
	c0-2.882-1.987-4.997-4.791-4.997c-2.829,0-4.819,2.09-4.819,4.997c0,2.93,1.991,4.995,4.819,4.995
	C144.594,18.593,146.581,16.503,146.581,13.598z"/>
<path fill="#E57E25" d="M159.927,8.04l-0.766,1.582c-1.045-0.665-2.396-1.097-3.643-1.097c-1.503,0-2.651,0.535-2.651,1.784
	c0,2.982,7.493,1.453,7.493,6.271c0,2.649-2.345,3.822-4.92,3.822c-1.91,0-3.874-0.663-5.147-1.886l0.766-1.503
	c1.146,1.07,2.879,1.708,4.46,1.708c1.579,0,2.853-0.586,2.878-1.912c0.078-3.237-7.441-1.58-7.416-6.348
	c0-2.574,2.217-3.644,4.666-3.644C157.251,6.817,158.806,7.276,159.927,8.04z"/>
</svg>
