<?xml version="1.0" encoding="utf-8"?>
<!-- Generator: Adobe Illustrator 13.0.1, SVG Export Plug-In . SVG Version: 6.00 Build 14948)  -->
<!DOCTYPE svg PUBLIC "-//W3C//DTD SVG 1.1//EN" "http://www.w3.org/Graphics/SVG/1.1/DTD/svg11.dtd">
<svg version="1.1" id="Capa_1" xmlns="http://www.w3.org/2000/svg" xmlns:xlink="http://www.w3.org/1999/xlink" x="0px" y="0px"
	 width="280px" height="65px" viewBox="0 0 280 65" enable-background="new 0 0 280 65" xml:space="preserve">
<g>
	<path fill="#D3D3D3" d="M16.458,15.513c0,1.794-1.497,3.241-3.347,3.241c-1.849,0-3.349-1.447-3.349-3.241
		c0-1.787,1.5-3.239,3.349-3.239C14.96,12.273,16.458,13.726,16.458,15.513z"/>
	<rect x="10.842" y="22.211" fill="#8F8F8F" width="4.753" height="31.858"/>
	<polygon fill="#8F8F8F" points="28.335,22.211 28.335,54.069 32.762,53.96 32.874,33.227 41.405,53.96 45.833,54.069 
		45.723,22.211 41.08,22.101 41.08,42.406 32.658,22.211 	"/>
	<path fill="#8F8F8F" d="M72.289,10.332l-0.109,5.938c0,0-3.131-2.269-4.859-1.834c-1.728,0.432-1.188-0.323-3.997,1.619
		C60.515,18,62.03,22.535,62.458,23.4c0.435,0.859,7.995,9.068,7.995,9.068s2.805,3.025,3.562,6.372
		c0.758,3.349,0,6.266-0.104,7.347c-0.111,1.078-1.837,4.213-3.028,5.507c-1.188,1.295-2.267,1.513-3.347,1.837
		c-1.078,0.322-5.183,0.969-6.156,0.429c-0.969-0.539-3.779-1.294-3.779-1.833s0-5.939,0-5.939s1.511,1.078,2.269,1.402
		c0.755,0.323,1.62,0.97,3.347,0.758c1.727-0.216,2.808-0.327,3.78-1.513c0.973-1.188,1.621-2.594,1.621-5.185
		s-2.593-5.185-2.593-5.185l-5.344-5.831c0,0-3.079-3.455-3.727-5.4c-0.648-1.945-0.92-5.024-0.811-5.672
		c0.107-0.646-0.216-2.7,1.24-5.235c1.46-2.536,2.647-3.511,3.51-4.05c0.869-0.539,1.677-1.027,4.32-1.406
		C67.858,8.494,72.289,10.332,72.289,10.332z"/>
	<g>
		<g>
			<path fill="#8F8F8F" d="M150.198,32.2c0,0,1.675-0.216,2.591-0.97c0.922-0.759,1.402-1.298,2.105-2.864
				c0.703-1.566,0.758-1.675,1.297-3.778c0.541-2.106,0.107-5.778,0.053-5.997c-0.053-0.214-0.592-3.021-0.592-3.021
				s-0.863-2.16-1.514-3.025c-0.646-0.862-1.996-1.675-2.535-1.943c-0.543-0.269-2.377-1.027-3.023-0.971
				c-0.65,0.052-10.154,0.052-10.154,0.052l0.216,43.959l5.508,0.106l0.215-21.224l8.1,21.117l5.992,0.051L150.198,32.2z
				 M146.526,29.013h-2.321l-0.055-14.521c0,0,2.322-0.491,3.079,0c0.753,0.482,0.7,0.212,1.456,0.97
				c0.756,0.755,1.08,0.919,1.513,2.377c0.431,1.456,0.431,1.889,0.431,1.889l0.054,1.783c0,0-0.106,2.914-0.325,3.94
				c-0.215,1.026,0.111,0.65-1.131,2.05C147.982,28.906,146.526,29.013,146.526,29.013z"/>
		</g>
	</g>
	<polygon fill="#8F8F8F" points="170.877,53.641 186.373,53.531 186.482,48.56 176.492,48.453 176.545,33.441 185.133,33.441 
		185.08,28.638 176.545,28.638 176.545,14.382 186.43,14.382 186.373,9.574 170.877,9.682 	"/>
	<rect x="117.926" y="9.719" fill="#8F8F8F" width="5.763" height="44.062"/>
	<g>
		<g>
			<path fill="#8F8F8F" d="M105.492,21.241v-2.002c0,0-0.269-1.673-0.592-2.97c-0.323-1.295-1.295-3.238-1.511-3.508
				c-0.216-0.272-1.513-1.191-2.378-1.73c-0.863-0.54-3.508-1.188-3.832-1.242c-0.325-0.051-10.153-0.107-10.153-0.107L86.918,38.52
				l0.055,15.172l5.992-0.051l0.055-19.496c0,0,2.375,0.217,5.022-0.379c2.647-0.595,2.863-0.809,4.05-1.725
				c1.188-0.922,1.618-1.784,2.106-3.028c0.484-1.242,0.702-0.972,1.134-3.131C105.762,23.721,105.492,21.241,105.492,21.241z
				 M99.161,25.666c-0.219,1.025,0.104,0.646-1.134,2.053c-1.244,1.402-2.7,1.513-2.7,1.513h-2.324l-0.055-14.528
				c0,0,2.324-0.484,3.078,0c0.756,0.486,0.703,0.216,1.459,0.974c0.756,0.755,1.078,0.917,1.509,2.374
				c0.434,1.461,0.434,1.891,0.434,1.891l0.054,1.783C99.483,21.724,99.376,24.64,99.161,25.666z"/>
		</g>
	</g>
</g>
<g>
	<path fill="#8F8F8F" d="M223.002,47.427c-2.125-4.704-7.67-16.66-8.281-17.979v-6.783c1.258-0.125,2.236-1.144,2.236-2.381
		c0-1.329-1.117-2.398-2.494-2.398h-9.785c-1.377,0-2.486,1.07-2.486,2.398c0,1.198,0.916,2.192,2.113,2.366v6.798
		c-0.609,1.319-6.154,13.274-8.281,17.979c-0.48,1.076-0.695,1.99-0.695,2.782c0.045,3.193,3.275,3.666,3.303,3.671l0.047,0.006
		h21.674l0.045-0.006c0.033-0.005,3.256-0.478,3.303-3.671C223.699,49.417,223.484,48.503,223.002,47.427z"/>
	<path fill="#FFFFFF" d="M220.232,52.658h-21.438c-0.266-0.057-2.236-0.465-2.193-2.449c0-0.578,0.158-1.336,0.592-2.293
		c2.248-4.963,8.324-18.067,8.33-18.084l0.053-0.12v-8.261h-0.898c-0.67-0.001-1.213-0.525-1.215-1.167
		c0.002-0.647,0.545-1.173,1.215-1.175h9.785c0.674,0.002,1.217,0.527,1.217,1.175c0,0.641-0.543,1.166-1.217,1.167h-1.016v8.261
		l0.057,0.12c0.008,0.017,6.084,13.121,8.33,18.084c0.432,0.957,0.586,1.715,0.586,2.293
		C222.467,52.199,220.5,52.602,220.232,52.658z"/>
	<path fill="#D3D3D3" d="M215.391,37.734c-0.447-0.033-2.814,0.774-3.266,0.774c-1.145,0-2.664-1.132-5.746-1.132l-2.818,0.527
		c-1.455,3.15-3.211,6.959-4.139,9.002c-1.756,3.886,1.656,4.385,1.656,4.385h16.873c0,0,3.408-0.499,1.652-4.385
		C218.5,44.477,216.939,41.084,215.391,37.734z"/>
</g>
<g>
	<path fill="#8F8F8F" d="M231.449,39.992h1.67v11.535h5.529v1.402h-7.199V39.992z"/>
	<path fill="#8F8F8F" d="M242.604,48.859l-1.344,4.07h-1.727l4.396-12.938h2.016l4.414,12.938h-1.785l-1.383-4.07H242.604z
		 M246.846,47.555l-1.266-3.725c-0.289-0.844-0.48-1.611-0.672-2.361h-0.039c-0.191,0.768-0.402,1.555-0.652,2.342l-1.268,3.744
		H246.846z"/>
	<path fill="#8F8F8F" d="M252.262,40.164c0.73-0.154,1.881-0.27,3.053-0.27c1.67,0,2.744,0.289,3.551,0.941
		c0.672,0.5,1.074,1.268,1.074,2.285c0,1.246-0.824,2.342-2.188,2.84V46c1.229,0.307,2.668,1.324,2.668,3.244
		c0,1.113-0.441,1.957-1.094,2.592c-0.902,0.824-2.361,1.209-4.473,1.209c-1.152,0-2.035-0.078-2.592-0.154V40.164z M253.932,45.463
		h1.518c1.766,0,2.803-0.922,2.803-2.17c0-1.516-1.152-2.111-2.842-2.111c-0.768,0-1.209,0.057-1.479,0.115V45.463z M253.932,51.662
		c0.326,0.059,0.807,0.076,1.402,0.076c1.727,0,3.32-0.633,3.32-2.514c0-1.766-1.516-2.496-3.34-2.496h-1.383V51.662z"/>
	<path fill="#8F8F8F" d="M262.438,50.895c0.75,0.461,1.844,0.844,2.994,0.844c1.709,0,2.707-0.902,2.707-2.207
		c0-1.209-0.691-1.9-2.438-2.572c-2.111-0.748-3.416-1.842-3.416-3.666c0-2.016,1.67-3.514,4.184-3.514
		c1.324,0,2.285,0.309,2.861,0.635l-0.461,1.363c-0.424-0.23-1.287-0.615-2.457-0.615c-1.768,0-2.439,1.057-2.439,1.939
		c0,1.209,0.787,1.805,2.572,2.494c2.189,0.846,3.303,1.9,3.303,3.801c0,1.996-1.479,3.744-4.531,3.744
		c-1.246,0-2.609-0.385-3.301-0.846L262.438,50.895z"/>
</g>
</svg>
